# xmcd CD database file
#
# Track frame offsets:
#	187
#	22205
#	57240
#	90005
#	116240
#	147667
#
# Disc length: 2277 seconds
#
# Revision: 0
# Processed by: cddbd v1.5.1PL2 Copyright (c) Steve Scherf et al.
# Submitted via: CDex 1.50
#
DISCID=5108e306
DTITLE=Mal Waldron Quintet - MAL-1
DYEAR=1956
DGENRE=Jazz
TTITLE0=Stablemates
TTITLE1=Yesterdays
TTITLE2=Transfiguration
TTITLE3=Bud Study
TTITLE4=Dee's Dilemma
TTITLE5=Shome
EXTD=YEAR: 1956
EXTT0=
EXTT1=
EXTT2=
EXTT3=
EXTT4=
EXTT5=
PLAYORDER=
